<?xml version="1.0" encoding="iso-8859-1"?>
<!-- Generator: Adobe Illustrator 29.8.2, SVG Export Plug-In . SVG Version: 9.03 Build 0)  -->
<svg version="1.1" id="Layer_1" xmlns="http://www.w3.org/2000/svg" xmlns:xlink="http://www.w3.org/1999/xlink" x="0px" y="0px"
	 viewBox="0 0 16 16" style="enable-background:new 0 0 16 16;" xml:space="preserve">
<g>
	<path d="M3.963,0.066c2.476-0.122,5.318-0.099,7.805-0.024c2.477,0.075,4.008,1.014,4.188,3.652c-0.102,2.816,0.138,5.73,0,8.535
		c-0.112,2.271-1.351,3.615-3.648,3.726c-2.846,0.138-5.796-0.099-8.653,0.001c-2.36-0.136-3.632-1.673-3.613-3.996
		c0.092-2.644-0.116-5.363,0-7.998C0.157,1.352,1.39,0.193,3.963,0.066z M12.712,4.485c-0.035-0.343,0.046-0.771,0.002-1.103
		c-0.04-0.296-0.855-0.242-1.098-0.207c-1.168,0.169-1.645,1.408-1.569,2.468l-0.772,0v1.217l0.058,0.058h0.715v4.191l0.058,0.058
		h1.429l0.058-0.058V6.919h1.043V5.663l-0.058-0.058h-0.985c-0.023-0.277,0.015-0.817,0.256-0.999
		c0.026-0.02,0.25-0.121,0.265-0.121H12.712z M4.794,8.927C6.786,9.06,8.768,8.409,8.581,6.048c-0.204-2.583-3.328-2.236-5.16-2.183
		l-0.133,0.06v7.242c0.439-0.008,0.938,0.092,1.373,0.041c0.056-0.007,0.099-0.005,0.133-0.06V8.927z"/>
	<path style="fill:#FFFFFF;" d="M4.794,8.927v2.221c-0.034,0.055-0.077,0.053-0.133,0.06c-0.435,0.051-0.934-0.049-1.373-0.041
		V3.925l0.133-0.06c1.831-0.053,4.955-0.4,5.16,2.183C8.768,8.409,6.786,9.06,4.794,8.927z M4.794,7.575h0.83
		c0.041,0,0.275-0.037,0.338-0.048c0.582-0.1,1.048-0.384,1.105-1.018c0.087-0.956-0.64-1.306-1.481-1.33
		C5.445,5.174,5.019,5.196,4.891,5.219c-0.043,0.008-0.072,0.02-0.096,0.058V7.575z"/>
	<path style="fill:#FFFFFF;" d="M12.712,4.485h-0.599c-0.015,0-0.239,0.101-0.265,0.121c-0.242,0.182-0.28,0.721-0.256,0.999h0.985
		l0.058,0.058v1.255h-1.043v4.191l-0.058,0.058h-1.429l-0.058-0.058V6.919H9.332L9.275,6.861V5.644l0.772,0
		c-0.076-1.06,0.401-2.299,1.569-2.468c0.243-0.035,1.059-0.089,1.098,0.207C12.758,3.715,12.677,4.142,12.712,4.485z"/>
	<path d="M4.794,7.575V5.277c0.024-0.038,0.053-0.05,0.096-0.058c0.128-0.023,0.554-0.045,0.697-0.041
		c0.841,0.024,1.568,0.374,1.481,1.33C7.01,7.143,6.544,7.427,5.963,7.527C5.899,7.538,5.666,7.575,5.625,7.575H4.794z"/>
</g>
</svg>
